<svg xmlns="http://www.w3.org/2000/svg" viewBox="0 0 24 24" fill="#EA4C89">
  <path d="M12 0C5.372 0 0 5.373 0 12s5.372 12 12 12 12-5.373 12-12S18.628 0 12 0zm9.885 11.441c-2.575-.422-4.943-.445-7.103-.073-.244-.563-.497-1.125-.767-1.68 2.31-1 4.165-2.358 5.548-4.082a9.863 9.863 0 0 1 2.322 5.835zm-3.842-7.282c-1.205 1.554-2.868 2.783-4.986 3.68-1.016-1.861-2.178-3.676-3.488-5.438A9.93 9.93 0 0 1 12 2.009c2.275 0 4.368.779 6.043 2.15zM7.527 3.166c1.331 1.742 2.511 3.538 3.537 5.381-2.43.715-5.331 1.082-8.684 1.105a9.916 9.916 0 0 1 5.147-6.486zM2.009 12l.022-.312c3.901-.086 7.299-.56 10.123-1.42.267.5.533 1.003.776 1.511-3.58.988-6.674 2.952-9.229 5.909a9.863 9.863 0 0 1-1.692-5.688zm3.378 7.129c2.297-2.707 5.059-4.49 8.256-5.358a42.94 42.94 0 0 1 1.632 5.958 9.915 9.915 0 0 1-9.888-.6zm11.412-.281a45.608 45.608 0 0 0-1.519-5.561c1.834-.293 3.857-.284 6.093.021a9.938 9.938 0 0 1-4.574 5.54z"/>
</svg>
