<?xml version="1.0" encoding="UTF-8"?>
<svg xmlns="http://www.w3.org/2000/svg" viewBox="0 0 24 24">
  <path d="M6.908 24H3.804c-.664 0-1.086-.529-.936-1.18l.149-.674h2.071c.666 0 1.336-.533 1.482-1.182l1.064-4.592c.15-.648.816-1.18 1.48-1.18h.883c3.789 0 6.734-.779 8.84-2.34s3.16-3.6 3.16-6.135c0-1.125-.195-2.055-.588-2.789 0-.016-.016-.031-.016-.046l.135.075c.75.465 1.32 1.064 1.711 1.814.404.75.598 1.68.598 2.79 0 2.535-1.049 4.574-3.164 6.135-2.1 1.545-5.055 2.324-8.834 2.324h-.9c-.66 0-1.334.525-1.484 1.186L8.39 22.812c-.149.645-.81 1.17-1.47 1.17L6.908 24z" fill="#253B80"/>
  <path d="M6.908 24H3.804c-.664 0-1.086-.529-.936-1.18l.149-.674h2.071c.666 0 1.336-.533 1.482-1.182l1.064-4.592c.15-.648.816-1.18 1.48-1.18h.883c3.789 0 6.734-.779 8.84-2.34s3.16-3.6 3.16-6.135c0-1.125-.195-2.055-.588-2.789 0-.016-.016-.031-.016-.046l.135.075c.75.465 1.32 1.064 1.711 1.814.404.75.598 1.68.598 2.79 0 2.535-1.049 4.574-3.164 6.135-2.1 1.545-5.055 2.324-8.834 2.324h-.9c-.66 0-1.334.525-1.484 1.186L8.39 22.812c-.149.645-.81 1.17-1.47 1.17L6.908 24z" fill="#253B80"/>
  <path d="M4.231 21.305H1.126c-.663 0-1.084-.529-.936-1.18L4.563 1.182C4.714.529 5.378 0 6.044 0h6.465c1.395 0 2.609.098 3.648.289 1.035.189 1.92.519 2.684.99.736.465 1.322 1.072 1.697 1.818.389.748.584 1.68.584 2.797 0 2.535-1.051 4.574-3.164 6.119-2.1 1.561-5.056 2.326-8.835 2.326h-.9c-.66 0-1.334.525-1.484 1.186l-1.06 4.594c-.15.648-.821 1.186-1.485 1.186h-.21z" fill="#179BD7"/>
</svg>
