<?xml version="1.0" encoding="UTF-8"?>
<svg xmlns="http://www.w3.org/2000/svg" viewBox="0 0 24 24">
  <path d="M7.799 5.698c.589 0 1.12.051 1.606.156.482.102.894.273 1.241.507.344.235.612.546.804.938.188.387.281.871.281 1.443 0 .619-.141 1.137-.421 1.551-.284.414-.7.753-1.255 1.014.756.213 1.32.601 1.689 1.146.371.549.554 1.205.554 1.975 0 .623-.12 1.161-.359 1.612a3.144 3.144 0 01-.973 1.114c-.408.288-.876.5-1.399.637A6.144 6.144 0 017.963 18H2V5.698h5.799m-.35 4.835c.482 0 .878-.114 1.192-.345.312-.228.463-.604.463-1.119 0-.286-.051-.522-.151-.707a1.114 1.114 0 00-.417-.428 1.683 1.683 0 00-.597-.223 3.603 3.603 0 00-.697-.069H4.709v2.891h2.74zm.151 5.066c.267 0 .521-.023.76-.077.241-.052.455-.136.637-.261.182-.12.332-.283.44-.491.109-.206.162-.475.162-.798 0-.634-.179-1.085-.533-1.358-.355-.27-.831-.404-1.414-.404H4.709v3.39l2.891-.001zm8.867-7.223c.533 0 1.014.081 1.445.243.43.162.791.39 1.084.687.291.297.511.657.661 1.092.148.433.225.918.225 1.446 0 .129-.011.267-.032.406-.023.14-.055.248-.094.324H15.652c.044.588.233 1.012.568 1.271.337.258.777.386 1.318.386.337 0 .658-.065.964-.193.305-.132.561-.29.759-.477l.904 1.026a3.73 3.73 0 01-1.358.863c-.534.203-1.131.305-1.788.305a4.59 4.59 0 01-1.639-.284 3.6 3.6 0 01-1.27-.813 3.632 3.632 0 01-.823-1.283c-.194-.506-.29-1.069-.29-1.691 0-.634.096-1.203.291-1.707.193-.505.464-.933.812-1.283a3.6 3.6 0 011.23-.843c.474-.205.991-.308 1.553-.308zm.033 1.09c-.468 0-.846.133-1.131.4-.286.265-.461.642-.527 1.125h3.168c-.011-.498-.153-.873-.42-1.131-.269-.258-.646-.394-1.09-.394zM22 7.151h-4.99V5.698H22v1.453z" fill="#1769FF"/>
</svg>
