<?xml version="1.0" encoding="UTF-8"?>
<svg xmlns="http://www.w3.org/2000/svg" viewBox="0 0 24 24">
  <path d="M7.953 15.066c-.08.163-.08.324-.08.486.08 1.214 1.293 1.862 2.236 1.294h.08c.326-.163.572-.486.652-.811v-.081c.08-.162.08-.324.08-.486-.08-1.214-1.293-1.862-2.236-1.294h-.08c-.326.163-.572.486-.652.811v.081zm10.884-5.341c-.08-.649-.326-1.214-.733-1.699l-4.064-4.886c-.407-.406-.896-.649-1.466-.649-.571 0-1.06.243-1.467.649l-4.063 4.886c-.407.485-.652 1.05-.733 1.699 0 .649.245 1.214.652 1.699.407.406.896.649 1.466.649h.733v4.32c0 .892.57 1.54 1.466 1.54h3.33c.896 0 1.467-.648 1.467-1.54v-4.32h.733c.57 0 1.06-.243 1.466-.649.407-.485.652-1.05.652-1.699zm-5.937 5.341c-.08.163-.08.324-.08.486.08 1.214 1.293 1.862 2.236 1.294h.08c.326-.163.572-.486.652-.811v-.081c.08-.162.08-.324.08-.486-.08-1.214-1.293-1.862-2.236-1.294h-.08c-.326.163-.572.486-.652.811v.081z" fill="#43E660"/>
</svg>
