<svg xmlns="http://www.w3.org/2000/svg" width="1200" height="630" viewBox="0 0 1200 630">
  <defs>
    <radialGradient id="glow" cx="0.86" cy="0.06" r="0.64">
      <stop offset="0" stop-color="#1f9e5f" stop-opacity="0.60"/>
      <stop offset="0.5" stop-color="#1f9e5f" stop-opacity="0.18"/>
      <stop offset="1" stop-color="#1f9e5f" stop-opacity="0"/>
    </radialGradient>
    <pattern id="dots" width="26" height="26" patternUnits="userSpaceOnUse">
      <circle cx="1.5" cy="1.5" r="1.3" fill="#ffffff" fill-opacity="0.07"/>
    </pattern>
  </defs>
  <rect width="1200" height="630" fill="#25232b"/>
  <rect width="1200" height="630" fill="url(#dots)"/>
  <rect width="1200" height="630" fill="url(#glow)"/>
  <text x="132" y="97" font-family="Baloo Da 2" font-weight="800" font-size="38" fill="#ffffff">GBTI</text>
  <text x="600" y="206" text-anchor="middle" font-family="JetBrains Mono" font-weight="500" font-size="19" letter-spacing="7" fill="#45c08d">GBTI NEWS</text>
  <g transform="translate(552 230) scale(4)" fill="none" stroke="#5fd39a" stroke-width="1.8" stroke-linecap="round" stroke-linejoin="round"><rect x="7" y="7" width="10" height="10" rx="1.5"/><rect x="10.5" y="10.5" width="3" height="3" rx=".5"/><path d="M9.5 4v3M14.5 4v3M9.5 17v3M14.5 17v3M4 9.5h3M4 14.5h3M17 9.5h3M17 14.5h3"/></g>
  <text x="600" y="405" text-anchor="middle" font-family="Baloo Da 2" font-weight="800" font-size="76" letter-spacing="1" fill="#ffffff">HARDWARE</text>
  <text x="60" y="566" font-family="JetBrains Mono" font-weight="500" font-size="20" letter-spacing="6" fill="#8f8d96">GBTI.NETWORK</text>
</svg>
